<svg width="164" height="29" viewBox="0 0 164 29" fill="none" xmlns="http://www.w3.org/2000/svg">
<path d="M30.012 11.8803V12.3437C30.2998 11.8781 30.7041 11.4932 31.1863 11.2257C31.6684 10.9582 32.2122 10.8171 32.7656 10.8159C34.8267 10.8159 36.4173 12.7244 36.4173 15.0363V16.4425C36.4173 18.6734 34.7724 20.7034 32.8676 20.7034C31.6635 20.7034 30.6025 19.9193 30.2159 19.0947V23.8983C30.2159 24.3843 29.5004 24.8704 28.6039 24.8704C27.7074 24.8704 27.0527 24.3843 27.0527 23.8983V11.8803C27.0527 11.3181 27.7255 10.9358 28.5628 10.9358C29.4001 10.9358 30.012 11.3181 30.012 11.8803ZM33.2558 15.0363C33.2416 14.6373 33.073 14.2589 32.7846 13.9784C32.4962 13.698 32.1098 13.5368 31.7046 13.528C31.5056 13.5283 31.3087 13.5679 31.1254 13.6444C30.9422 13.7208 30.7763 13.8326 30.6376 13.9732C30.4989 14.1137 30.3901 14.2802 30.3177 14.4628C30.2453 14.6453 30.2107 14.8403 30.2159 15.0363V16.7034C30.2159 17.0452 30.8476 17.9897 31.7457 17.9897C32.5419 17.9897 33.2558 17.2267 33.2558 16.4425V15.0363Z" fill="white"/>
<path d="M41.2531 6.41404V19.5369C41.2531 20.023 40.5392 20.509 39.6608 20.509C38.7429 20.509 38.0898 20.023 38.0898 19.5369V6.41404C38.0898 5.85186 38.7478 5.47113 39.6608 5.47113C40.5392 5.47113 41.2531 5.85186 41.2531 6.41404Z" fill="white"/>
<path d="M51.3948 14.7544V19.5369C51.3948 20.0797 50.7368 20.509 49.8436 20.509C49.0474 20.509 48.4355 20.0862 48.4355 19.5369V19.0947C47.7002 19.9387 46.7626 20.7034 45.3348 20.7034C43.907 20.7034 42.7227 19.8594 42.7227 18.0302C42.7227 15.6584 44.6818 14.9958 47.493 14.9958H48.2283V14.7949C48.2283 14.1112 47.8614 13.3076 46.6985 13.3076C45.0256 13.3076 44.8611 13.9702 44.31 13.9702C43.6175 13.9702 43.249 13.1472 43.249 12.423C43.249 11.4785 45.223 10.8159 46.7379 10.8159C50.0887 10.8159 51.3948 12.7244 51.3948 14.7544ZM48.2315 16.5025H48.1493C46.9863 16.5025 45.9056 16.624 45.9056 17.588C45.9056 18.1712 46.2346 18.432 46.7018 18.432C47.3334 18.432 48.2315 17.6074 48.2315 16.5835V16.5025Z" fill="white"/>
<path d="M56.3116 19.5369C56.3116 20.023 55.5764 20.509 54.7193 20.509C53.8015 20.509 53.1484 20.023 53.1484 19.5369V11.8803C53.1484 11.3181 53.8064 10.9358 54.7193 10.9358C55.4744 10.9358 56.1077 11.3181 56.1077 11.8803V12.3437C56.4942 11.5595 57.4746 10.8159 58.8416 10.8159C60.6987 10.8159 62.3107 12.7244 62.3107 15.0363V19.5369C62.3107 20.185 61.5146 20.509 60.7184 20.509C59.9848 20.509 59.1475 20.185 59.1475 19.5369V15.0363C59.1475 14.2716 58.4895 13.528 57.6786 13.528C57.0058 13.528 56.3116 14.0918 56.3116 15.0363V19.5369Z" fill="white"/>
<path d="M72.9601 15.0363V16.4425C72.9601 18.6734 70.7987 20.7034 68.3082 20.7034C65.8178 20.7034 63.6777 18.6929 63.6777 16.4425V15.0363C63.6777 12.7859 65.7586 10.824 68.3082 10.824C70.7987 10.8159 72.9601 12.7244 72.9601 15.0363ZM69.7985 15.0363C69.7985 14.2716 69.1241 13.5279 68.3082 13.5279C67.4923 13.5279 66.8393 14.2716 66.8393 15.0363V16.4425C66.8393 17.2526 67.4973 17.9897 68.3082 17.9897C69.1192 17.9897 69.7985 17.2461 69.7985 16.4425V15.0363Z" fill="white"/>
<path d="M81.8767 5.53107V20.0602C81.8695 20.1829 81.8138 20.2978 81.7216 20.3805C81.6293 20.4632 81.5079 20.507 81.3833 20.5025C81.2597 20.503 81.1405 20.4579 81.0491 20.376C80.9578 20.2941 80.9009 20.1814 80.8898 20.0602V19.0882C80.4407 19.9128 79.36 20.6159 78.1148 20.6159C76.177 20.6159 74.4844 18.8484 74.4844 16.8897V14.581C74.4813 13.6153 74.8651 12.6874 75.5525 11.9988C76.24 11.3102 77.1755 10.9166 78.1559 10.9034C78.7059 10.8936 79.2483 11.0303 79.726 11.2989C80.2037 11.5675 80.5989 11.9581 80.87 12.4295V5.53107C80.8748 5.47013 80.8918 5.41073 80.9201 5.35634C80.9484 5.30195 80.9875 5.25366 81.0349 5.2143C81.0824 5.17493 81.1374 5.14528 81.1966 5.12706C81.2559 5.10885 81.3182 5.10244 81.38 5.10822C81.4412 5.10173 81.5031 5.10772 81.5619 5.1258C81.6207 5.14388 81.675 5.17368 81.7216 5.21334C81.7682 5.25299 81.806 5.30166 81.8327 5.35632C81.8594 5.41098 81.8744 5.47046 81.8767 5.53107ZM75.4895 16.9043C75.4895 18.3316 76.7347 19.6973 78.2036 19.6973C79.7334 19.6973 80.8766 18.2392 80.8766 17.5912V14.581C80.8766 12.8524 79.5294 11.8268 78.2233 11.8268C76.7149 11.8268 75.4895 13.1942 75.4895 14.581V16.9043Z" fill="white"/>
<path d="M91.671 14.534C91.671 16.0407 90.814 16.0812 89.9356 16.0812H85.2081V16.9253C85.2081 18.6524 86.5948 19.7184 88.4979 19.7184C90.1708 19.7184 90.4965 18.9083 90.9259 18.9083C91.0488 18.924 91.1625 18.9808 91.2479 19.0694C91.3333 19.1579 91.3851 19.2726 91.3947 19.3944C91.3947 19.8172 90.2728 20.6208 88.4568 20.6208C85.968 20.6208 84.2129 19.1335 84.2129 16.8945V14.513C84.2129 12.5445 85.9055 10.8969 87.9666 10.8969C88.4529 10.8941 88.9349 10.9862 89.3849 11.1679C89.8349 11.3495 90.2438 11.6171 90.5882 11.9553C90.9326 12.2934 91.2056 12.6954 91.3915 13.138C91.5773 13.5806 91.6723 14.0551 91.671 14.534ZM89.5491 15.2566C90.4669 15.2566 90.6906 15.1367 90.6906 14.534C90.6906 13.1667 89.5885 11.7798 87.9568 11.7798C87.2357 11.7751 86.5419 12.0514 86.027 12.5486C85.512 13.0458 85.2176 13.7234 85.2081 14.4336V15.2566H89.5491Z" fill="white"/>
<path d="M97.9139 17.7289C97.9139 16.3421 93.1436 17.2866 93.1436 13.9103C93.1436 12.423 94.0813 10.8159 96.9796 10.8159C98.7545 10.8159 100.447 11.4186 100.447 12.2626C100.447 12.6644 100.039 13.7207 99.3056 13.7207C98.7545 13.7207 98.1212 13.1181 97.0191 13.1181C96.1966 13.1181 95.8561 13.4599 95.8561 13.7661C95.8561 14.9002 100.673 14.0675 100.673 17.6042C100.673 19.4932 99.2842 20.7002 96.7345 20.7002C94.5961 20.7002 92.8574 19.835 92.8574 18.8516C92.8574 18.3656 93.2654 17.4843 93.8987 17.4843C94.532 17.4843 95.0205 18.3883 96.6523 18.3883C97.7297 18.3915 97.9139 18.0108 97.9139 17.7289Z" fill="white"/>
<path d="M110.211 14.7544V19.5369C110.211 20.0797 109.553 20.509 108.66 20.509C107.864 20.509 107.252 20.0862 107.252 19.5369V19.0947C106.517 19.9387 105.579 20.7034 104.151 20.7034C102.723 20.7034 101.539 19.8594 101.539 18.0302C101.539 15.6584 103.498 14.9958 106.309 14.9958H107.045V14.7949C107.045 14.1112 106.678 13.3076 105.515 13.3076C103.84 13.3076 103.677 13.9702 103.126 13.9702C102.434 13.9702 102.065 13.1472 102.065 12.423C102.065 11.4785 104.039 10.8159 105.554 10.8159C108.912 10.8159 110.211 12.7244 110.211 14.7544ZM107.048 16.5025H106.966C105.803 16.5025 104.722 16.624 104.722 17.588C104.722 18.1712 105.051 18.432 105.518 18.432C106.15 18.432 107.048 17.6074 107.048 16.5835V16.5025Z" fill="white"/>
<path d="M111.869 16.483V11.9014C111.869 11.4153 112.583 10.9293 113.461 10.9293C114.297 10.9293 115.032 11.4153 115.032 11.9014V16.483C115.032 17.2461 115.705 17.9897 116.521 17.9897C117.337 17.9897 117.99 17.2461 117.99 16.483V11.8803C117.99 11.3781 118.725 10.9358 119.582 10.9358C120.5 10.9358 121.153 11.3781 121.153 11.8803V16.483C121.153 18.7334 119.051 20.7034 116.521 20.7034C113.991 20.7034 111.869 18.7139 111.869 16.483ZM115.787 9.19254C115.691 9.23821 115.588 9.26569 115.481 9.27354C114.95 9.27354 114.542 8.6255 114.542 8.10706C114.533 7.96343 114.567 7.82032 114.639 7.69538C114.712 7.57044 114.82 7.46912 114.95 7.40393L117.807 6.09812C117.898 6.06098 117.994 6.04066 118.092 6.03818C118.643 6.03818 119.051 6.68622 119.051 7.20304C119.058 7.34369 119.023 7.48321 118.95 7.6046C118.878 7.726 118.771 7.82402 118.643 7.88672L115.787 9.19254Z" fill="white"/>
<path d="M131.905 6.41404V19.5369C131.905 20.023 131.247 20.509 130.354 20.509C129.579 20.509 128.946 20.023 128.946 19.5369V19.0946C128.538 19.9193 127.395 20.7034 126.09 20.7034C124.192 20.7034 122.539 18.6734 122.539 16.4425V15.0363C122.539 12.7244 124.151 10.824 126.158 10.824C126.689 10.8263 127.21 10.9693 127.666 11.2381C128.122 11.5069 128.496 11.8916 128.749 12.3517V6.41404C128.749 5.85186 129.463 5.47113 130.361 5.47113C131.259 5.47113 131.905 5.85186 131.905 6.41404ZM125.702 16.4425C125.702 17.2267 126.36 17.9897 127.171 17.9897C128.048 17.9897 128.742 17.0452 128.742 16.7034V15.0363C128.739 14.6338 128.574 14.2489 128.283 13.9662C127.992 13.6834 127.6 13.5258 127.191 13.5279C126.355 13.5279 125.702 14.2716 125.702 15.0363V16.4425Z" fill="white"/>
<path d="M142.475 14.6345C142.475 16.4166 141.433 16.5025 140.501 16.5025H136.558V16.624C136.558 17.6074 137.393 18.2716 138.639 18.2716C139.884 18.2716 140.515 17.528 141.188 17.528C141.924 17.528 142.351 18.4126 142.351 18.8938C142.351 19.6584 140.871 20.7034 138.556 20.7034C135.536 20.7034 133.395 18.9942 133.395 16.4425V14.9844C133.395 12.7325 135.475 10.824 138.088 10.824C140.433 10.8159 142.475 12.3631 142.475 14.6345ZM139.088 14.7544C139.372 14.7544 139.515 14.6539 139.515 14.2683C139.515 13.4583 138.782 13.063 138.035 13.063C137.288 13.063 136.566 13.4648 136.566 14.2683V14.7544H139.088Z" fill="white"/>
<path d="M144.58 20.0489C144.578 20.187 144.522 20.3191 144.424 20.4179C144.326 20.5168 144.193 20.5749 144.053 20.5803C143.91 20.5803 143.773 20.5243 143.672 20.4246C143.571 20.325 143.514 20.1898 143.514 20.0489C143.514 19.9079 143.571 19.7728 143.672 19.6731C143.773 19.5735 143.91 19.5175 144.053 19.5175C144.193 19.5229 144.326 19.581 144.424 19.6798C144.522 19.7787 144.578 19.9108 144.58 20.0489Z" fill="white"/>
<path d="M146.643 20.2174C146.635 20.2973 146.597 20.3713 146.536 20.4244C146.475 20.4774 146.395 20.5053 146.314 20.5025C146.234 20.5048 146.156 20.4762 146.097 20.423C146.038 20.3698 146.003 20.296 145.998 20.2174V14.6507C145.998 14.4887 146.13 14.3931 146.314 14.3931C146.352 14.3891 146.39 14.3926 146.427 14.4035C146.463 14.4143 146.497 14.4323 146.526 14.4563C146.556 14.4804 146.58 14.51 146.597 14.5433C146.615 14.5767 146.625 14.6132 146.628 14.6507V15.2987C146.803 14.9924 147.06 14.739 147.37 14.5657C147.68 14.3924 148.033 14.3058 148.39 14.3153C149.02 14.326 149.621 14.581 150.061 15.025C150.502 15.469 150.747 16.0663 150.744 16.6872V20.2206C150.742 20.261 150.733 20.3007 150.715 20.3373C150.697 20.3738 150.673 20.4064 150.642 20.4331C150.611 20.4599 150.575 20.4801 150.536 20.4926C150.497 20.505 150.456 20.5095 150.415 20.5058C150.375 20.5094 150.334 20.5047 150.296 20.492C150.258 20.4793 150.223 20.4588 150.193 20.4319C150.164 20.4051 150.14 20.3724 150.124 20.336C150.108 20.2996 150.1 20.2603 150.101 20.2206V16.6872C150.101 15.7929 149.298 14.905 148.339 14.905C147.498 14.905 146.643 15.566 146.643 16.6872V20.2174Z" fill="white"/>
<path d="M156.987 16.658C156.987 17.6301 156.434 17.6544 155.87 17.6544H152.815V18.1971C152.815 19.3117 153.708 19.997 154.93 19.997C156.01 19.997 156.218 19.4786 156.495 19.4786C156.574 19.4887 156.647 19.525 156.702 19.5816C156.757 19.6382 156.791 19.7116 156.797 19.7897C156.797 20.0618 156.074 20.5803 154.904 20.5803C153.302 20.5803 152.172 19.6212 152.172 18.1841V16.645C152.184 16.0218 152.444 15.428 152.896 14.9921C153.349 14.5562 153.957 14.3131 154.59 14.3153C154.904 14.3121 155.216 14.3704 155.507 14.4867C155.798 14.6031 156.063 14.7752 156.285 14.9932C156.508 15.2111 156.685 15.4705 156.806 15.7563C156.926 16.0421 156.987 16.3486 156.987 16.658ZM155.62 17.123C156.21 17.123 156.355 17.0452 156.355 16.658C156.357 16.1938 156.174 15.7474 155.844 15.4154C155.515 15.0834 155.066 14.8925 154.595 14.884C154.129 14.8788 153.68 15.0558 153.346 15.3762C153.013 15.6966 152.822 16.1343 152.815 16.5932V17.123H155.62Z" fill="white"/>
<path d="M158.957 18.6507C158.957 19.5693 159.313 19.9063 160.311 19.9063H160.64C160.68 19.9047 160.72 19.9113 160.758 19.9258C160.795 19.9402 160.829 19.9621 160.857 19.9902C160.885 20.0182 160.908 20.0517 160.922 20.0886C160.936 20.1255 160.943 20.1649 160.941 20.2044C160.942 20.2436 160.934 20.2825 160.92 20.3189C160.905 20.3553 160.883 20.3883 160.855 20.4161C160.826 20.4439 160.793 20.4659 160.756 20.4807C160.719 20.4955 160.68 20.503 160.64 20.5025H160.311C159.01 20.5025 158.312 19.9452 158.312 18.6507V11.7005C158.322 11.6247 158.359 11.5551 158.418 11.5048C158.476 11.4546 158.551 11.4273 158.628 11.4283C158.708 11.4228 158.787 11.4481 158.849 11.4989C158.91 11.5497 158.949 11.6219 158.957 11.7005V14.3931H160.711C160.779 14.402 160.842 14.4351 160.887 14.4862C160.933 14.5373 160.958 14.603 160.958 14.6709C160.958 14.7389 160.933 14.8045 160.887 14.8556C160.842 14.9068 160.779 14.9399 160.711 14.9488H158.957V18.6507Z" fill="white"/>
<path d="M15.7014 4.87979C15.2887 5.16899 14.9169 5.51115 14.596 5.89722C14.5056 6.00739 14.4315 6.12566 14.3477 6.24068H15.7014V4.87979Z" fill="white"/>
<path d="M18.2771 6.24067V3.7619C17.4501 3.88732 16.6646 4.20255 15.9841 4.68213C15.8887 4.74531 15.7949 4.81335 15.7012 4.87978V6.24067H18.2771Z" fill="white"/>
<path d="M18.6102 3.71491C18.4934 3.72301 18.3882 3.74731 18.2812 3.76189V6.24066H20.8572V4.22038C20.4297 4.00421 19.9734 3.84823 19.5018 3.75703C19.2082 3.70069 18.9079 3.6865 18.6102 3.71491Z" fill="white"/>
<path d="M22.8192 6.24068C22.6755 5.934 22.4895 5.64833 22.2665 5.39174C21.883 4.90912 21.4018 4.51024 20.8535 4.2204V6.24068H22.8192Z" fill="white"/>
<path d="M13.125 8.77776H15.701V6.24066H14.3472C13.8192 6.99327 13.4073 7.81877 13.125 8.69027V8.77776Z" fill="white"/>
<path d="M18.2771 6.24066H15.7012V8.77776H18.2771V6.24066Z" fill="white"/>
<path d="M20.8533 6.24066H18.2773V8.77776H20.8533V6.24066Z" fill="white"/>
<path d="M20.852 8.77776H23.3885C23.3633 8.07585 23.2353 7.38121 23.0085 6.71535C22.9443 6.5339 22.8818 6.37999 22.8177 6.24066H20.8438L20.852 8.77776Z" fill="white"/>
<path d="M5.398 9.92157C5.36346 9.94587 5.32562 9.96531 5.28944 9.98961C4.7559 10.3555 4.28502 10.8029 3.89453 11.3149H5.398V9.92157Z" fill="white"/>
<path d="M7.97245 11.3149V9.00134C7.73245 9.01571 7.49415 9.0504 7.2602 9.10503C6.59481 9.26323 5.9636 9.53758 5.39648 9.91509V11.3084L7.97245 11.3149Z" fill="white"/>
<path d="M10.5486 9.64453C10.1675 9.42086 9.75977 9.24454 9.33466 9.11961C8.88951 9.01159 8.43013 8.9717 7.97266 9.00134V11.3149H10.5486V9.64453Z" fill="white"/>
<path d="M12.8188 9.68503C12.6428 10.1889 12.2777 10.4594 11.7908 10.2958C11.3039 10.1322 11.0752 9.90537 10.6508 9.69799L10.5488 9.64453V11.3149H13.1248V8.77777H13.0935C13.0754 8.83447 13.0524 8.88956 13.0343 8.93978C12.9603 9.1828 12.8912 9.4809 12.8188 9.68503Z" fill="white"/>
<path d="M15.701 8.77777H13.125V11.3149H15.701V8.77777Z" fill="white"/>
<path d="M18.2771 8.77777H15.7012V11.3149H18.2771V8.77777Z" fill="white"/>
<path d="M20.8533 8.77777H18.2773V11.3149H20.8533V8.77777Z" fill="white"/>
<path d="M20.8535 11.3149H23.1169C23.1844 11.0087 23.2469 10.7057 23.293 10.4173C23.3809 9.87538 23.4134 9.32611 23.39 8.77777H20.8535V11.3149Z" fill="white"/>
<path d="M3.89394 11.3148C3.51212 11.8266 3.2115 12.3925 3.00238 12.9933C2.91279 13.272 2.85757 13.5603 2.83789 13.8519H5.39741V11.3148H3.89394Z" fill="white"/>
<path d="M7.97245 11.3148H5.39648V13.8519H7.97245V11.3148Z" fill="white"/>
<path d="M10.5486 11.3148H7.97266V13.8519H10.5486V11.3148Z" fill="white"/>
<path d="M13.1248 11.3148H10.5488V13.8519H13.1248V11.3148Z" fill="white"/>
<path d="M15.701 11.3148H13.125V13.8519H15.701V11.3148Z" fill="white"/>
<path d="M18.2771 11.3148H15.7012V13.8519H18.2771V11.3148Z" fill="white"/>
<path d="M20.8533 11.3148H18.2773V13.8519H20.8533V11.3148Z" fill="white"/>
<path d="M20.8535 13.8519H22.3586C22.6738 13.0256 22.9272 12.1776 23.1169 11.3148H20.8535V13.8519Z" fill="white"/>
<path d="M2.84048 13.852C2.84048 13.9087 2.82732 13.9654 2.82074 14.014C2.81416 14.0626 2.80922 14.1339 2.79935 14.1954C2.76137 14.5032 2.76857 14.8148 2.82074 15.1205C2.84377 15.255 2.87008 15.3878 2.90463 15.5158C2.98245 15.8035 3.07579 16.0869 3.18427 16.3648C3.18399 16.3701 3.18399 16.3756 3.18427 16.381H5.3967V13.852H2.84048Z" fill="white"/>
<path d="M7.97245 13.852H5.39648V16.3891H7.97245V13.852Z" fill="white"/>
<path d="M10.5486 13.852H7.97266V16.3891H10.5486V13.852Z" fill="white"/>
<path d="M13.1248 13.852H10.5488V16.3891H13.1248V13.852Z" fill="white"/>
<path d="M15.701 13.852H13.125V16.3891H15.701V13.852Z" fill="white"/>
<path d="M18.2771 13.852H15.7012V16.3891H18.2771V13.852Z" fill="white"/>
<path d="M20.8533 13.852H18.2773V16.3891H20.8533V13.852Z" fill="white"/>
<path d="M20.8535 16.3891H21.199C21.4983 15.8026 21.7813 15.2048 22.0527 14.6069C22.1612 14.3655 22.2599 14.1079 22.3586 13.8503H20.8535V16.3891Z" fill="white"/>
<path d="M7.97245 16.389H5.39648V18.9261H7.97245V16.389Z" fill="white"/>
<path d="M10.5486 16.389H7.97266V18.9261H10.5486V16.389Z" fill="white"/>
<path d="M13.1248 16.389H10.5488V18.9261H13.1248V16.389Z" fill="white"/>
<path d="M15.701 16.389H13.125V18.9261H15.701V16.389Z" fill="white"/>
<path d="M18.2771 16.389H15.7012V18.9261H18.2771V16.389Z" fill="white"/>
<path d="M18.2773 16.389V18.9261H19.6739C19.8071 18.735 19.9437 18.547 20.0703 18.3542C20.3516 17.9298 20.6066 17.4859 20.8533 17.0371V16.389H18.2773Z" fill="white"/>
<path d="M20.8535 17.0371C20.9703 16.8216 21.0887 16.6078 21.199 16.389H20.8535V17.0371Z" fill="white"/>
<path d="M5.39726 16.389H3.19141C3.53729 17.2498 4.09187 18.014 4.80673 18.6151C4.93339 18.722 5.06992 18.8257 5.2081 18.9261H5.39726V16.389Z" fill="white"/>
<path d="M5.20703 18.9261C5.26954 18.9715 5.33205 19.0169 5.3962 19.0606V18.9261H5.20703Z" fill="white"/>
<path d="M7.97245 20.5495V18.9294H5.39648V19.0639C5.87352 19.3879 6.38345 19.6908 6.84074 19.9436C7.21578 20.1509 7.59576 20.3502 7.97245 20.5495Z" fill="white"/>
<path d="M7.97266 18.9261V20.5463C8.53522 20.8427 9.08957 21.1392 9.61759 21.46H10.5519V18.9261H7.97266Z" fill="white"/>
<path d="M13.1248 18.9261H10.5488V21.4632H13.1248V18.9261Z" fill="white"/>
<path d="M15.701 18.9261H13.125V21.4632H15.701V18.9261Z" fill="white"/>
<path d="M15.7012 21.4632H17.7557C17.9301 21.251 18.1061 21.0404 18.2771 20.8249V18.9261H15.7012V21.4632Z" fill="white"/>
<path d="M19.6739 18.9261H18.2773V20.8249C18.7642 20.2077 19.2281 19.5726 19.6739 18.9261Z" fill="white"/>
<path d="M10.3637 21.9509C10.4311 22.0011 10.4903 22.0497 10.5528 22.0999V21.4632H9.61523C9.8702 21.6188 10.1219 21.7791 10.3637 21.9509Z" fill="white"/>
<path d="M13.1248 21.4632H10.5488V22.0999C11.2 22.5925 11.7041 23.2491 12.0079 24.0003H13.1297L13.1248 21.4632Z" fill="white"/>
<path d="M15.701 21.4632H13.125V24.0003H15.5118L15.701 23.7962V21.4632Z" fill="white"/>
<path d="M15.7012 23.7962C15.943 23.5354 16.1947 23.2697 16.4397 22.9942C16.8888 22.5001 17.3264 21.9849 17.7557 21.4632H15.7012V23.7962Z" fill="white"/>
<path d="M12.0078 24.0003C12.0917 24.1964 12.1723 24.4005 12.2529 24.6241C12.4075 25.0615 12.5391 25.5961 12.7102 26.0611C12.7587 26.2205 12.8551 26.3617 12.9865 26.4661C13.0293 26.4948 13.0784 26.5131 13.1297 26.5196V24.0003H12.0078Z" fill="white"/>
<path d="M13.125 26.5196C13.2016 26.5305 13.2797 26.5144 13.3454 26.4742C13.4131 26.4403 13.47 26.3888 13.5099 26.3252C13.579 26.2442 13.5971 26.1729 13.6744 26.0676C14.0416 25.5868 14.4382 25.1286 14.8621 24.6954L15.52 24.0003H13.125V26.5196Z" fill="white"/>
</svg>
